<!--?xml version="1.0" encoding="utf-8"?-->
<!-- Svg Vector Icons : http://www.onlinewebfonts.com/icon -->

<svg version="1.1" xmlns="http://www.w3.org/2000/svg" xmlns:xlink="http://www.w3.org/1999/xlink" x="0px" y="0px" viewBox="0 0 256 256" enable-background="new 0 0 256 256" xml:space="preserve">
<metadata> Svg Vector Icons : http://www.onlinewebfonts.com/icon </metadata>
<g><g><g><path fill="#FFFFFF" data-title="Layer 0" xs="0" d="M54.3,128h44.3v14.8H54.3V128z M54.3,157.5h44.3v14.8H54.3V157.5z M54.3,187h44.3v14.8H54.3V187z M218.2,56L185.3,23c-7.2-7.2-21.3-13-31.5-13H43.2c-10.1,0-18.4,8.3-18.4,18.4v199.1c0,10.1,8.3,18.4,18.4,18.4h169.6c10.1,0,18.4-8.3,18.4-18.4V87.4C231.3,77.3,225.4,63.1,218.2,56z M207.8,66.4c0.7,0.7,1.4,1.6,2.1,2.6h-37.7V31.3c1,0.7,1.9,1.4,2.6,2.1L207.8,66.4z M216.5,227.5c0,2-1.7,3.7-3.7,3.7H43.2c-2,0-3.7-1.7-3.7-3.7V28.4c0-2,1.7-3.7,3.7-3.7h110.6c1.1,0,2.4,0.1,3.7,0.4v58.6h58.6c0.2,1.3,0.4,2.6,0.4,3.7V227.5z M142.8,172.2h43.5c-3.4,16.8-18.3,29.5-36.1,29.5c-20.4,0-36.9-16.5-36.9-36.9c0-17.8,12.7-32.7,29.5-36.1V172.2L142.8,172.2z M164.9,113.3c20.4,0,36.9,16.5,36.9,36.9c0,2.5-0.3,5-0.7,7.4h-43.5V114C159.9,113.5,162.3,113.3,164.9,113.3z"/></g><g></g><g></g><g></g><g></g><g></g><g></g><g></g><g></g><g></g><g></g><g></g><g></g><g></g><g></g><g></g></g></g>
</svg>